<svg width="18" height="21" viewBox="0 0 18 21" fill="none" xmlns="http://www.w3.org/2000/svg">
<g clip-path="url(#clip0_64_6844)">
<g clip-path="url(#clip1_64_6844)">
<path d="M8.75391 6.00781C6.26953 6.00781 4.26562 8.01172 4.26562 10.4961C4.26562 12.9805 6.26953 14.9844 8.75391 14.9844C11.2383 14.9844 13.2422 12.9805 13.2422 10.4961C13.2422 8.01172 11.2383 6.00781 8.75391 6.00781ZM8.75391 13.4141C7.14844 13.4141 5.83594 12.1055 5.83594 10.4961C5.83594 8.88672 7.14453 7.57812 8.75391 7.57812C10.3633 7.57812 11.6719 8.88672 11.6719 10.4961C11.6719 12.1055 10.3594 13.4141 8.75391 13.4141ZM14.4727 5.82422C14.4727 6.40625 14.0039 6.87109 13.4258 6.87109C12.8438 6.87109 12.3789 6.40234 12.3789 5.82422C12.3789 5.24609 12.8477 4.77734 13.4258 4.77734C14.0039 4.77734 14.4727 5.24609 14.4727 5.82422ZM17.4453 6.88672C17.3789 5.48438 17.0586 4.24219 16.0312 3.21875C15.0078 2.19531 13.7656 1.875 12.3633 1.80469C10.918 1.72266 6.58594 1.72266 5.14062 1.80469C3.74219 1.87109 2.5 2.19141 1.47266 3.21484C0.445313 4.23828 0.128906 5.48047 0.0585937 6.88281C-0.0234375 8.32812 -0.0234375 12.6602 0.0585937 14.1055C0.125 15.5078 0.445313 16.75 1.47266 17.7734C2.5 18.7969 3.73828 19.1172 5.14062 19.1875C6.58594 19.2695 10.918 19.2695 12.3633 19.1875C13.7656 19.1211 15.0078 18.8008 16.0312 17.7734C17.0547 16.75 17.375 15.5078 17.4453 14.1055C17.5273 12.6602 17.5273 8.33203 17.4453 6.88672ZM15.5781 15.6562C15.2734 16.4219 14.6836 17.0117 13.9141 17.3203C12.7617 17.7773 10.0273 17.6719 8.75391 17.6719C7.48047 17.6719 4.74219 17.7734 3.59375 17.3203C2.82812 17.0156 2.23828 16.4258 1.92969 15.6562C1.47266 14.5039 1.57813 11.7695 1.57813 10.4961C1.57813 9.22266 1.47656 6.48438 1.92969 5.33594C2.23438 4.57031 2.82422 3.98047 3.59375 3.67187C4.74609 3.21484 7.48047 3.32031 8.75391 3.32031C10.0273 3.32031 12.7656 3.21875 13.9141 3.67187C14.6797 3.97656 15.2695 4.56641 15.5781 5.33594C16.0352 6.48828 15.9297 9.22266 15.9297 10.4961C15.9297 11.7695 16.0352 14.5078 15.5781 15.6562Z" fill="#9CA3AF"/>
</g>
</g>
<defs>
<clipPath id="clip0_64_6844">
<rect width="17.5" height="20" fill="white" transform="translate(0 0.5)"/>
</clipPath>
<clipPath id="clip1_64_6844">
<path d="M0 0.5H17.5V20.5H0V0.5Z" fill="white"/>
</clipPath>
</defs>
</svg>
