<svg width="31" height="24" viewBox="0 0 31 24" fill="none" xmlns="http://www.w3.org/2000/svg">
<g clip-path="url(#clip0_64_6918)">
<path d="M7.07812 0C8.07269 0 9.02651 0.395088 9.72978 1.09835C10.433 1.80161 10.8281 2.75544 10.8281 3.75C10.8281 4.74456 10.433 5.69839 9.72978 6.40165C9.02651 7.10491 8.07269 7.5 7.07812 7.5C6.08356 7.5 5.12974 7.10491 4.42647 6.40165C3.72321 5.69839 3.32812 4.74456 3.32812 3.75C3.32812 2.75544 3.72321 1.80161 4.42647 1.09835C5.12974 0.395088 6.08356 0 7.07812 0ZM24.3281 0C25.3227 0 26.2765 0.395088 26.9798 1.09835C27.683 1.80161 28.0781 2.75544 28.0781 3.75C28.0781 4.74456 27.683 5.69839 26.9798 6.40165C26.2765 7.10491 25.3227 7.5 24.3281 7.5C23.3336 7.5 22.3797 7.10491 21.6765 6.40165C20.9732 5.69839 20.5781 4.74456 20.5781 3.75C20.5781 2.75544 20.9732 1.80161 21.6765 1.09835C22.3797 0.395088 23.3336 0 24.3281 0ZM0.328125 14.0016C0.328125 11.2406 2.56875 9 5.32969 9H7.33125C8.07656 9 8.78438 9.16406 9.42188 9.45469C9.36094 9.79219 9.33281 10.1438 9.33281 10.5C9.33281 12.2906 10.1203 13.8984 11.3625 15C11.3531 15 11.3438 15 11.3297 15H1.32656C0.778125 15 0.328125 14.55 0.328125 14.0016ZM19.3266 15C19.3172 15 19.3078 15 19.2938 15C20.5406 13.8984 21.3234 12.2906 21.3234 10.5C21.3234 10.1438 21.2906 9.79688 21.2344 9.45469C21.8719 9.15938 22.5797 9 23.325 9H25.3266C28.0875 9 30.3281 11.2406 30.3281 14.0016C30.3281 14.5547 29.8781 15 29.3297 15H19.3266ZM10.8281 10.5C10.8281 9.30653 11.3022 8.16193 12.1461 7.31802C12.9901 6.47411 14.1347 6 15.3281 6C16.5216 6 17.6662 6.47411 18.5101 7.31802C19.354 8.16193 19.8281 9.30653 19.8281 10.5C19.8281 11.6935 19.354 12.8381 18.5101 13.682C17.6662 14.5259 16.5216 15 15.3281 15C14.1347 15 12.9901 14.5259 12.1461 13.682C11.3022 12.8381 10.8281 11.6935 10.8281 10.5ZM6.32812 22.7484C6.32812 19.2984 9.12656 16.5 12.5766 16.5H18.0797C21.5297 16.5 24.3281 19.2984 24.3281 22.7484C24.3281 23.4375 23.7703 24 23.0766 24H7.57969C6.89062 24 6.32812 23.4422 6.32812 22.7484Z" fill="#0284C7"/>
</g>
<defs>
<clipPath id="clip0_64_6918">
<path d="M0.328125 0H30.3281V24H0.328125V0Z" fill="white"/>
</clipPath>
</defs>
</svg>
