<svg width="150" height="64" viewBox="0 0 150 64" fill="none" xmlns="http://www.w3.org/2000/svg">
<path d="M43.8742 39.2704C41.5207 42.4634 37.7295 44.37 33.7327 44.37C26.8215 44.37 21.198 38.8204 21.198 31.9993C21.198 25.1781 26.8207 19.6293 33.7327 19.6293C37.7295 19.6293 41.5207 21.5359 43.8742 24.7289L44.0985 25.0338L47.2912 22.7423L47.067 22.4374C43.9732 18.24 38.9887 15.7332 33.7327 15.7332C24.6442 15.7332 17.2507 23.0302 17.2507 31.9985C17.2507 40.9668 24.6442 48.2653 33.7327 48.2653C38.988 48.2653 43.9732 45.7592 47.067 41.5611L47.2912 41.2562L44.0985 38.9647L43.8742 39.2697V39.2704Z" fill="#17193E"/>
<path d="M48.2115 30.0061H33.1455V33.994H48.2115V30.0061Z" fill="#17193E"/>
<path d="M55.5037 44.6868C52.3447 44.6868 50.3647 42.8416 50.3647 39.3326V30.5412C50.3647 27.1765 52.4287 25.3676 55.5877 25.3676C58.9155 25.3676 60.9375 27.0322 60.9375 30.65V35.8961H54.24V39.5502C54.24 41.106 54.7455 41.8654 55.7145 41.8654C56.7675 41.8654 57.273 41.0697 57.231 38.3201H60.9375C61.0215 42.5529 59.2102 44.6875 55.5037 44.6875V44.6868ZM54.24 30.2511V33.3626H57.2302V30.2511C57.2302 28.8041 56.7247 28.0802 55.7137 28.0802C54.7027 28.0802 54.2392 28.8041 54.2392 30.2511H54.24Z" fill="#17193E"/>
<path d="M74.0369 30.4687V44.2531H71.3414L70.7939 43.0955C69.8669 44.145 68.6879 44.6513 67.2974 44.6513C64.8967 44.6513 63.2534 42.6618 63.2534 39.8033V37.8131C63.2534 34.7378 64.8959 32.7483 67.8029 32.7483C68.6452 32.7483 69.4034 32.9289 70.1197 33.2546V30.3961C70.1197 28.6598 69.7402 28.081 68.7719 28.081C67.6769 28.081 67.1294 29.0217 67.1294 30.9394H63.4649C63.4229 27.0685 65.6549 25.3676 68.8987 25.3676C72.1424 25.3676 74.0377 27.104 74.0377 30.4687H74.0369ZM70.1197 40.8884V35.9316C69.7402 35.5335 69.2774 35.3166 68.7299 35.3166C67.6769 35.3166 67.1294 36.2573 67.1294 38.1025V39.6583C67.1294 40.9246 67.8037 41.7566 68.6879 41.7566C69.2774 41.7566 69.7409 41.4672 70.1204 40.8884H70.1197Z" fill="#17193E"/>
<path d="M84.7776 25.5845V29.2748C82.7136 29.1297 81.4079 29.8899 80.8604 31.59V44.2523H76.9431V25.8013H80.4396L80.7344 27.5739C81.6186 26.235 82.9671 25.5837 84.7784 25.5837L84.7776 25.5845Z" fill="#17193E"/>
<path d="M112.28 19.1201V44.4455H108.278V33.4832H104.656V44.4455H100.655V19.1201H104.656V30.1911H108.278V19.1201H112.28Z" fill="#17193E"/>
<path d="M119.44 19.3007H115.522V23.0273H119.44V19.3007Z" fill="#DD2F3C"/>
<path d="M119.44 25.9945H115.522V44.4455H119.44V25.9945Z" fill="#17193E"/>
<path d="M130.307 25.7769V29.4672C128.243 29.3222 126.937 30.0823 126.39 31.7824V44.4447H122.473V25.9938H125.969L126.264 27.7664C127.148 26.4275 128.497 25.7762 130.308 25.7762L130.307 25.7769Z" fill="#17193E"/>
<path d="M137.299 44.8792C134.14 44.8792 132.16 43.034 132.16 39.525V30.7336C132.16 27.3689 134.224 25.56 137.383 25.56C140.71 25.56 142.732 27.2246 142.732 30.8424V36.0885H136.034V39.7426C136.034 41.2984 136.54 42.0578 137.509 42.0578C138.562 42.0578 139.067 41.2621 139.025 38.5125H142.732C142.816 42.7454 141.004 44.8799 137.298 44.8799L137.299 44.8792ZM136.035 30.4435V33.555H139.025V30.4435C139.025 28.9965 138.52 28.2726 137.509 28.2726C136.498 28.2726 136.034 28.9965 136.034 30.4435H136.035Z" fill="#17193E"/>
<path d="M15.3547 56.8458C10.8937 56.8458 7.2644 53.2643 7.2644 48.8626V15.1366C7.2644 10.7343 10.8937 7.15347 15.3547 7.15347H28.9694V11.1354H15.3547C13.1189 11.1354 11.3002 12.9303 11.3002 15.1366V48.8626C11.3002 51.069 13.1189 52.8638 15.3547 52.8638H28.9694V56.8458H15.3547Z" fill="#0014C7"/>
<path d="M73.0588 56.8458V52.8638H86.6736C88.9093 52.8638 90.7281 51.069 90.7281 48.8626V15.1366C90.7281 12.9303 88.9093 11.1354 86.6736 11.1354H73.0588V7.15347H86.6736C91.1346 7.15347 94.7638 10.735 94.7638 15.1366V48.8626C94.7638 53.2643 91.1346 56.8458 86.6736 56.8458H73.0588Z" fill="#0014C7"/>
</svg>
