<svg width="18" height="21" viewBox="0 0 18 21" fill="none" xmlns="http://www.w3.org/2000/svg">
<g clip-path="url(#clip0_64_6854)">
<path d="M16.75 1.75H1.74609C1.05859 1.75 0.5 2.31641 0.5 3.01172V17.9883C0.5 18.6836 1.05859 19.25 1.74609 19.25H16.75C17.4375 19.25 18 18.6836 18 17.9883V3.01172C18 2.31641 17.4375 1.75 16.75 1.75ZM5.78906 16.75H3.19531V8.39844H5.79297V16.75H5.78906ZM4.49219 7.25781C3.66016 7.25781 2.98828 6.58203 2.98828 5.75391C2.98828 4.92578 3.66016 4.25 4.49219 4.25C5.32031 4.25 5.99609 4.92578 5.99609 5.75391C5.99609 6.58594 5.32422 7.25781 4.49219 7.25781ZM15.5117 16.75H12.918V12.6875C12.918 11.7188 12.8984 10.4727 11.5703 10.4727C10.2188 10.4727 10.0117 11.5273 10.0117 12.6172V16.75H7.41797V8.39844H9.90625V9.53906H9.94141C10.2891 8.88281 11.1367 8.19141 12.3984 8.19141C15.0234 8.19141 15.5117 9.92188 15.5117 12.1719V16.75Z" fill="#9CA3AF"/>
</g>
<defs>
<clipPath id="clip0_64_6854">
<path d="M0.5 0.5H18V20.5H0.5V0.5Z" fill="white"/>
</clipPath>
</defs>
</svg>
