<svg width="15" height="16" viewBox="0 0 15 16" fill="none" xmlns="http://www.w3.org/2000/svg">
<g clip-path="url(#clip0_64_5693)">
<path d="M8.95312 2.5C8.95312 1.94687 8.50625 1.5 7.95312 1.5C7.4 1.5 6.95312 1.94687 6.95312 2.5V7H2.45312C1.9 7 1.45312 7.44688 1.45312 8C1.45312 8.55312 1.9 9 2.45312 9H6.95312V13.5C6.95312 14.0531 7.4 14.5 7.95312 14.5C8.50625 14.5 8.95312 14.0531 8.95312 13.5V9H13.4531C14.0063 9 14.4531 8.55312 14.4531 8C14.4531 7.44688 14.0063 7 13.4531 7H8.95312V2.5Z" fill="white"/>
</g>
<defs>
<clipPath id="clip0_64_5693">
<path d="M0.953125 0H14.9531V16H0.953125V0Z" fill="white"/>
</clipPath>
</defs>
</svg>
