<svg width="13" height="15" viewBox="0 0 13 15" fill="none" xmlns="http://www.w3.org/2000/svg">
<g clip-path="url(#clip0_114_1553)">
<path d="M0.335205 7.13201C-0.0065918 7.4738 -0.0065918 8.02888 0.335205 8.37068L4.71021 12.7457C5.052 13.0875 5.60708 13.0875 5.94888 12.7457C6.29067 12.4039 6.29067 11.8488 5.94888 11.507L3.06411 8.62498H11.4532C11.9372 8.62498 12.3282 8.23396 12.3282 7.74998C12.3282 7.26599 11.9372 6.87498 11.4532 6.87498H3.06685L5.94614 3.99294C6.28794 3.65115 6.28794 3.09607 5.94614 2.75427C5.60435 2.41248 5.04927 2.41248 4.70747 2.75427L0.332471 7.12927L0.335205 7.13201Z" fill="#6B7280"/>
</g>
<defs>
<clipPath id="clip0_114_1553">
<path d="M0.078125 0.75H12.3281V14.75H0.078125V0.75Z" fill="white"/>
</clipPath>
</defs>
</svg>
