<svg width="27" height="24" viewBox="0 0 27 24" fill="none" xmlns="http://www.w3.org/2000/svg">
<g clip-path="url(#clip0_64_7043)">
<path d="M13.6312 2.27808L17.3063 3.67026L13.5 5.13276L9.69375 3.67026L13.3688 2.27808C13.4531 2.24526 13.5469 2.24526 13.6359 2.27808H13.6312ZM6.375 4.33589V9.59526C6.31406 9.61401 6.25313 9.63276 6.19219 9.6562L1.69219 11.3625C0.675 11.7468 0 12.7265 0 13.814V19.4015C0 20.4421 0.614063 21.3843 1.57031 21.8062L6.07031 23.7843C6.74531 24.0796 7.50938 24.0796 8.18438 23.7843L13.5 21.4453L18.8203 23.7843C19.4953 24.0796 20.2594 24.0796 20.9344 23.7843L25.4344 21.8062C26.3859 21.389 27.0047 20.4421 27.0047 19.4015V13.814C27.0047 12.7218 26.3297 11.7468 25.3125 11.3578L20.8125 9.65151C20.7516 9.62808 20.6906 9.60933 20.6297 9.59058V4.33589C20.6297 3.2437 19.9547 2.2687 18.9375 1.87964L14.4375 0.173389C13.8375 -0.0516113 13.1766 -0.0516113 12.5766 0.173389L8.07656 1.87964C7.05 2.2687 6.375 3.24839 6.375 4.33589ZM18.375 9.87183L14.5125 11.3343V7.15308L18.375 5.67183V9.87183ZM7.25625 11.7609L10.9312 13.1531L7.125 14.6109L3.31875 13.1531L6.99375 11.7609C7.07812 11.7281 7.17187 11.7281 7.26094 11.7609H7.25625ZM8.1375 21.3421V16.6312L12 15.15V19.6453L8.1375 21.3421ZM19.7438 11.7609C19.8281 11.7281 19.9219 11.7281 20.0109 11.7609L23.6859 13.1531L19.875 14.6109L16.0687 13.1531L19.7438 11.7609ZM24.525 19.7437L20.8875 21.3421V16.6312L24.75 15.15V19.4015C24.75 19.5515 24.6609 19.6828 24.525 19.7437Z" fill="white"/>
</g>
<defs>
<clipPath id="clip0_64_7043">
<path d="M0 0H27V24H0V0Z" fill="white"/>
</clipPath>
</defs>
</svg>
