<svg width="23" height="21" viewBox="0 0 23 21" fill="none" xmlns="http://www.w3.org/2000/svg">
<g clip-path="url(#clip0_64_6990)">
<path d="M0 5.5C0 4.12109 1.12109 3 2.5 3H12.5C13.8789 3 15 4.12109 15 5.5V15.5C15 16.8789 13.8789 18 12.5 18H2.5C1.12109 18 0 16.8789 0 15.5V5.5ZM21.8398 4.39844C22.2461 4.61719 22.5 5.03906 22.5 5.5V15.5C22.5 15.9609 22.2461 16.3828 21.8398 16.6016C21.4336 16.8203 20.9414 16.7969 20.5547 16.5391L16.8047 14.0391L16.25 13.668V13V8V7.33203L16.8047 6.96094L20.5547 4.46094C20.9375 4.20703 21.4297 4.17969 21.8398 4.39844Z" fill="#0284C7"/>
</g>
<defs>
<clipPath id="clip0_64_6990">
<path d="M0 0.5H22.5V20.5H0V0.5Z" fill="white"/>
</clipPath>
</defs>
</svg>
