<svg width="17" height="16" viewBox="0 0 17 16" fill="none" xmlns="http://www.w3.org/2000/svg">
<g clip-path="url(#clip0_64_4754)">
<path d="M13.0781 12.0063C12.3875 10.8063 11.0906 10 9.60938 10H7.60938C6.12813 10 4.83125 10.8063 4.14062 12.0063C5.24062 13.2313 6.83437 14 8.60938 14C10.3844 14 11.9781 13.2281 13.0781 12.0063ZM0.609375 8C0.609375 5.87827 1.45223 3.84344 2.95252 2.34315C4.45281 0.842855 6.48764 0 8.60938 0C10.7311 0 12.7659 0.842855 14.2662 2.34315C15.7665 3.84344 16.6094 5.87827 16.6094 8C16.6094 10.1217 15.7665 12.1566 14.2662 13.6569C12.7659 15.1571 10.7311 16 8.60938 16C6.48764 16 4.45281 15.1571 2.95252 13.6569C1.45223 12.1566 0.609375 10.1217 0.609375 8ZM8.60938 8.5C9.20611 8.5 9.77841 8.26295 10.2004 7.84099C10.6223 7.41903 10.8594 6.84674 10.8594 6.25C10.8594 5.65326 10.6223 5.08097 10.2004 4.65901C9.77841 4.23705 9.20611 4 8.60938 4C8.01264 4 7.44034 4.23705 7.01838 4.65901C6.59643 5.08097 6.35938 5.65326 6.35938 6.25C6.35938 6.84674 6.59643 7.41903 7.01838 7.84099C7.44034 8.26295 8.01264 8.5 8.60938 8.5Z" fill="#0284C7"/>
</g>
<defs>
<clipPath id="clip0_64_4754">
<path d="M0.609375 0H16.6094V16H0.609375V0Z" fill="white"/>
</clipPath>
</defs>
</svg>
