<svg width="21" height="21" viewBox="0 0 21 21" fill="none" xmlns="http://www.w3.org/2000/svg">
<g clip-path="url(#clip0_64_6851)">
<path d="M20.1875 10.5C20.1875 5.14844 15.8516 0.8125 10.5 0.8125C5.14844 0.8125 0.8125 5.14844 0.8125 10.5C0.8125 15.3352 4.35508 19.343 8.98633 20.0703V13.3004H6.52539V10.5H8.98633V8.36562C8.98633 5.93789 10.4316 4.59687 12.6453 4.59687C13.7055 4.59687 14.8141 4.78594 14.8141 4.78594V7.16875H13.5922C12.3891 7.16875 12.0137 7.91562 12.0137 8.68164V10.5H14.7004L14.2707 13.3004H12.0137V20.0703C16.6449 19.343 20.1875 15.3352 20.1875 10.5Z" fill="#9CA3AF"/>
</g>
<defs>
<clipPath id="clip0_64_6851">
<path d="M0.5 0.5H20.5V20.5H0.5V0.5Z" fill="white"/>
</clipPath>
</defs>
</svg>
