<svg width="23" height="21" viewBox="0 0 23 21" fill="none" xmlns="http://www.w3.org/2000/svg">
<g clip-path="url(#clip0_64_5745)">
<path d="M11.6562 1.75C8.5 1.75 5.97266 3.1875 4.13281 4.89844C2.30469 6.59375 1.08203 8.625 0.503906 10.0195C0.375 10.3281 0.375 10.6719 0.503906 10.9805C1.08203 12.375 2.30469 14.4062 4.13281 16.1016C5.97266 17.8125 8.5 19.25 11.6562 19.25C14.8125 19.25 17.3398 17.8125 19.1797 16.1016C21.0078 14.4023 22.2305 12.375 22.8125 10.9805C22.9414 10.6719 22.9414 10.3281 22.8125 10.0195C22.2305 8.625 21.0078 6.59375 19.1797 4.89844C17.3398 3.1875 14.8125 1.75 11.6562 1.75ZM6.03125 10.5C6.03125 9.00816 6.62388 7.57742 7.67877 6.52252C8.73367 5.46763 10.1644 4.875 11.6562 4.875C13.1481 4.875 14.5788 5.46763 15.6337 6.52252C16.6886 7.57742 17.2812 9.00816 17.2812 10.5C17.2812 11.9918 16.6886 13.4226 15.6337 14.4775C14.5788 15.5324 13.1481 16.125 11.6562 16.125C10.1644 16.125 8.73367 15.5324 7.67877 14.4775C6.62388 13.4226 6.03125 11.9918 6.03125 10.5ZM11.6562 8C11.6562 9.37891 10.5352 10.5 9.15625 10.5C8.87891 10.5 8.61328 10.4531 8.36328 10.3711C8.14844 10.3008 7.89844 10.4336 7.90625 10.6602C7.91797 10.9297 7.95703 11.1992 8.03125 11.4688C8.56641 13.4688 10.625 14.6562 12.625 14.1211C14.625 13.5859 15.8125 11.5273 15.2773 9.52734C14.8438 7.90625 13.4102 6.81641 11.8164 6.75C11.5898 6.74219 11.457 6.98828 11.5273 7.20703C11.6094 7.45703 11.6562 7.72266 11.6562 8Z" fill="#16A34A"/>
</g>
<defs>
<clipPath id="clip0_64_5745">
<path d="M0.40625 0.5H22.9062V20.5H0.40625V0.5Z" fill="white"/>
</clipPath>
</defs>
</svg>
