<svg width="13" height="15" viewBox="0 0 13 15" fill="none" xmlns="http://www.w3.org/2000/svg">
<g clip-path="url(#clip0_64_4893)">
<g clip-path="url(#clip1_64_4893)">
<path d="M6.12783 4.60537C4.38877 4.60537 2.98603 6.00811 2.98603 7.74717C2.98603 9.48623 4.38877 10.889 6.12783 10.889C7.86689 10.889 9.26963 9.48623 9.26963 7.74717C9.26963 6.00811 7.86689 4.60537 6.12783 4.60537ZM6.12783 9.78975C5.004 9.78975 4.08525 8.87373 4.08525 7.74717C4.08525 6.62061 5.00127 5.70459 6.12783 5.70459C7.25439 5.70459 8.17041 6.62061 8.17041 7.74717C8.17041 8.87373 7.25166 9.78975 6.12783 9.78975ZM10.131 4.47686C10.131 4.88428 9.80283 5.20967 9.39815 5.20967C8.99072 5.20967 8.66533 4.88154 8.66533 4.47686C8.66533 4.07217 8.99346 3.74404 9.39815 3.74404C9.80283 3.74404 10.131 4.07217 10.131 4.47686ZM12.2118 5.22061C12.1653 4.23896 11.9411 3.36943 11.222 2.65303C10.5056 1.93662 9.63604 1.7124 8.6544 1.66318C7.64268 1.60576 4.61025 1.60576 3.59854 1.66318C2.61963 1.70967 1.7501 1.93389 1.03096 2.65029C0.311816 3.3667 0.090332 4.23623 0.0411133 5.21787C-0.0163086 6.22959 -0.0163086 9.26201 0.0411133 10.2737C0.0875977 11.2554 0.311816 12.1249 1.03096 12.8413C1.7501 13.5577 2.61689 13.7819 3.59854 13.8312C4.61025 13.8886 7.64268 13.8886 8.6544 13.8312C9.63604 13.7847 10.5056 13.5604 11.222 12.8413C11.9384 12.1249 12.1626 11.2554 12.2118 10.2737C12.2692 9.26201 12.2692 6.23232 12.2118 5.22061ZM10.9048 11.3593C10.6915 11.8952 10.2786 12.3081 9.73994 12.5241C8.9333 12.844 7.01924 12.7702 6.12783 12.7702C5.23643 12.7702 3.31963 12.8413 2.51572 12.5241C1.97979 12.3108 1.56689 11.8979 1.35088 11.3593C1.03096 10.5526 1.10479 8.63857 1.10479 7.74717C1.10479 6.85576 1.03369 4.93896 1.35088 4.13506C1.56416 3.59912 1.97705 3.18623 2.51572 2.97021C3.32236 2.65029 5.23643 2.72412 6.12783 2.72412C7.01924 2.72412 8.93604 2.65303 9.73994 2.97021C10.2759 3.1835 10.6888 3.59639 10.9048 4.13506C11.2247 4.9417 11.1509 6.85576 11.1509 7.74717C11.1509 8.63857 11.2247 10.5554 10.9048 11.3593Z" fill="#EC4899"/>
</g>
</g>
<defs>
<clipPath id="clip0_64_4893">
<rect width="12.25" height="14" fill="white" transform="translate(0 0.75)"/>
</clipPath>
<clipPath id="clip1_64_4893">
<path d="M0 0.75H12.25V14.75H0V0.75Z" fill="white"/>
</clipPath>
</defs>
</svg>
