<svg width="13" height="15" viewBox="0 0 13 15" fill="none" xmlns="http://www.w3.org/2000/svg">
<g clip-path="url(#clip0_64_4900)">
<g clip-path="url(#clip1_64_4900)">
<path d="M11.375 1.625H0.872266C0.391016 1.625 0 2.02148 0 2.5082V12.9918C0 13.4785 0.391016 13.875 0.872266 13.875H11.375C11.8562 13.875 12.25 13.4785 12.25 12.9918V2.5082C12.25 2.02148 11.8562 1.625 11.375 1.625ZM3.70234 12.125H1.88672V6.27891H3.70508V12.125H3.70234ZM2.79453 5.48047C2.21211 5.48047 1.7418 5.00742 1.7418 4.42773C1.7418 3.84805 2.21211 3.375 2.79453 3.375C3.37422 3.375 3.84727 3.84805 3.84727 4.42773C3.84727 5.01016 3.37695 5.48047 2.79453 5.48047ZM10.5082 12.125H8.69258V9.28125C8.69258 8.60313 8.67891 7.73086 7.74922 7.73086C6.80312 7.73086 6.6582 8.46914 6.6582 9.23203V12.125H4.84258V6.27891H6.58437V7.07734H6.60898C6.85234 6.61797 7.4457 6.13398 8.32891 6.13398C10.1664 6.13398 10.5082 7.34531 10.5082 8.92031V12.125Z" fill="#2563EB"/>
</g>
</g>
<defs>
<clipPath id="clip0_64_4900">
<rect width="12.25" height="14" fill="white" transform="translate(0 0.75)"/>
</clipPath>
<clipPath id="clip1_64_4900">
<path d="M0 0.75H12.25V14.75H0V0.75Z" fill="white"/>
</clipPath>
</defs>
</svg>
