<svg width="13" height="21" viewBox="0 0 13 21" fill="none" xmlns="http://www.w3.org/2000/svg">
<g clip-path="url(#clip0_64_6993)">
<path d="M6.25 0.5C6.9414 0.5 7.5 1.05859 7.5 1.75V3.14453C7.5625 3.15234 7.62109 3.16016 7.68359 3.17188C7.69921 3.17578 7.71093 3.17578 7.72656 3.17969L9.60156 3.52344C10.2812 3.64844 10.7305 4.30078 10.6055 4.97656C10.4805 5.65234 9.82812 6.10547 9.15234 5.98047L7.29687 5.64062C6.07421 5.46094 4.99609 5.58203 4.23828 5.88281C3.48046 6.18359 3.17578 6.59766 3.10546 6.98047C3.02734 7.39844 3.08593 7.63281 3.15234 7.77734C3.22265 7.92969 3.36718 8.10156 3.65234 8.29297C4.28906 8.71094 5.26562 8.98438 6.53125 9.32031L6.64453 9.35156C7.76171 9.64844 9.1289 10.0078 10.1445 10.6719C10.6992 11.0352 11.2227 11.5273 11.5469 12.2148C11.8789 12.9141 11.9492 13.6953 11.7969 14.5273C11.5273 16.0117 10.5039 17.0039 9.23437 17.5234C8.69921 17.7422 8.11718 17.8828 7.5 17.9531V19.25C7.5 19.9414 6.9414 20.5 6.25 20.5C5.55859 20.5 5 19.9414 5 19.25V17.8867C4.98437 17.8828 4.96484 17.8828 4.94921 17.8789H4.9414C3.98828 17.7305 2.42187 17.3203 1.36718 16.8516C0.738277 16.5703 0.45312 15.832 0.73437 15.2031C1.01562 14.5742 1.7539 14.2891 2.38281 14.5703C3.19921 14.9336 4.54296 15.293 5.32031 15.4141C6.5664 15.5977 7.59375 15.4922 8.28906 15.207C8.94921 14.9375 9.25 14.5469 9.33593 14.0781C9.41015 13.6641 9.35156 13.4258 9.28515 13.2812C9.21093 13.125 9.0664 12.9531 8.77734 12.7617C8.13671 12.3438 7.15625 12.0703 5.88671 11.7344L5.77734 11.707C4.66406 11.4102 3.29687 11.0469 2.28125 10.3828C1.72656 10.0195 1.20703 9.52344 0.882808 8.83594C0.554683 8.13672 0.488277 7.35547 0.644527 6.52344C0.925777 5.03125 2.04296 4.0625 3.3125 3.55859C3.83203 3.35156 4.40234 3.21094 5 3.12891V1.75C5 1.05859 5.55859 0.5 6.25 0.5Z" fill="#0284C7"/>
</g>
<defs>
<clipPath id="clip0_64_6993">
<path d="M0 0.5H12.5V20.5H0V0.5Z" fill="white"/>
</clipPath>
</defs>
</svg>
