<svg width="15" height="20" viewBox="0 0 15 20" fill="none" xmlns="http://www.w3.org/2000/svg">
  <g clip-path="url(#clip0_64_4819)">
    <path d="M2.125 3C1.02188 3 0.125 3.89688 0.125 5V15C0.125 16.1031 1.02188 17 2.125 17H12.125C13.2281 17 14.125 16.1031 14.125 15V7.41563C14.125 6.88438 13.9156 6.375 13.5406 6L11.125 3.58438C10.75 3.20938 10.2406 3 9.70938 3H2.125ZM2.125 6C2.125 5.44688 2.57188 5 3.125 5H9.125C9.67813 5 10.125 5.44688 10.125 6V8C10.125 8.55312 9.67813 9 9.125 9H3.125C2.57188 9 2.125 8.55312 2.125 8V6ZM7.125 11C7.65543 11 8.16414 11.2107 8.53921 11.5858C8.91429 11.9609 9.125 12.4696 9.125 13C9.125 13.5304 8.91429 14.0391 8.53921 14.4142C8.16414 14.7893 7.65543 15 7.125 15C6.59457 15 6.08586 14.7893 5.71079 14.4142C5.33571 14.0391 5.125 13.5304 5.125 13C5.125 12.4696 5.33571 11.9609 5.71079 11.5858C6.08586 11.2107 6.59457 11 7.125 11Z" fill="white"/>
  </g>
  <defs>
    <clipPath id="clip0_64_4819">
      <path d="M0.125 2H14.125V18H0.125V2Z" fill="white"/>
    </clipPath>
  </defs>
</svg>
