<svg width="18" height="19" viewBox="0 0 18 19" fill="none" xmlns="http://www.w3.org/2000/svg">
<g clip-path="url(#clip0_64_4052)">
<path d="M17.4341 6.10703C17.5466 6.41289 17.4517 6.75391 17.2091 6.97187L15.6869 8.35703C15.7255 8.64883 15.7466 8.94766 15.7466 9.25C15.7466 9.55234 15.7255 9.85117 15.6869 10.143L17.2091 11.5281C17.4517 11.7461 17.5466 12.0871 17.4341 12.393C17.2795 12.8113 17.0931 13.2121 16.8787 13.5988L16.7134 13.8836C16.4814 14.2703 16.2212 14.6359 15.9365 14.9805C15.7291 15.2336 15.3845 15.318 15.0752 15.2195L13.117 14.5973C12.6459 14.9594 12.1255 15.2617 11.5701 15.4902L11.1306 17.4977C11.0603 17.8176 10.8142 18.0707 10.4908 18.1234C10.0056 18.2043 9.5064 18.2465 8.99664 18.2465C8.48687 18.2465 7.98766 18.2043 7.5025 18.1234C7.17906 18.0707 6.93297 17.8176 6.86266 17.4977L6.4232 15.4902C5.86773 15.2617 5.34742 14.9594 4.87633 14.5973L2.92164 15.223C2.61226 15.3215 2.26773 15.2336 2.06031 14.984C1.77555 14.6395 1.51539 14.2738 1.28336 13.8871L1.11812 13.6023C0.903671 13.2156 0.717343 12.8148 0.562656 12.3965C0.450156 12.0906 0.545077 11.7496 0.787656 11.5316L2.30992 10.1465C2.27125 9.85117 2.25016 9.55234 2.25016 9.25C2.25016 8.94766 2.27125 8.64883 2.30992 8.35703L0.787656 6.97187C0.545077 6.75391 0.450156 6.41289 0.562656 6.10703C0.717343 5.68867 0.903671 5.28789 1.11812 4.90117L1.28336 4.61641C1.51539 4.22969 1.77555 3.86406 2.06031 3.51953C2.26773 3.26641 2.61226 3.18203 2.92164 3.28047L4.87984 3.90273C5.35094 3.54063 5.87125 3.23828 6.42672 3.00977L6.86617 1.00234C6.93648 0.682422 7.18258 0.429297 7.50601 0.376562C7.99117 0.292187 8.49039 0.25 9.00016 0.25C9.50992 0.25 10.0091 0.292188 10.4943 0.373047C10.8177 0.425781 11.0638 0.678906 11.1341 0.998828L11.5736 3.00625C12.1291 3.23477 12.6494 3.53711 13.1205 3.89922L15.0787 3.27695C15.388 3.17852 15.7326 3.26641 15.94 3.51602C16.2248 3.86055 16.4849 4.22617 16.717 4.61289L16.8822 4.89766C17.0966 5.28437 17.283 5.68516 17.4377 6.10352L17.4341 6.10703ZM9.00016 12.0625C9.74608 12.0625 10.4614 11.7662 10.9889 11.2387C11.5163 10.7113 11.8127 9.99592 11.8127 9.25C11.8127 8.50408 11.5163 7.78871 10.9889 7.26126C10.4614 6.73382 9.74608 6.4375 9.00016 6.4375C8.25423 6.4375 7.53886 6.73382 7.01142 7.26126C6.48397 7.78871 6.18766 8.50408 6.18766 9.25C6.18766 9.99592 6.48397 10.7113 7.01142 11.2387C7.53886 11.7662 8.25423 12.0625 9.00016 12.0625Z" fill="#4B5563"/>
</g>
<defs>
<clipPath id="clip0_64_4052">
<path d="M0 0.25H18V18.25H0V0.25Z" fill="white"/>
</clipPath>
</defs>
</svg>
