<svg width="23" height="21" viewBox="0 0 23 21" fill="none" xmlns="http://www.w3.org/2000/svg">
<g clip-path="url(#clip0_64_7009)">
<path d="M12.3789 1.20312C12.1719 0.773438 11.7344 0.5 11.2539 0.5C10.7734 0.5 10.3399 0.773438 10.1289 1.20312L7.6172 6.37109L2.00782 7.19922C1.53907 7.26953 1.14845 7.59766 1.00391 8.04688C0.859383 8.49609 0.97657 8.99219 1.31251 9.32422L5.38282 13.3516L4.42188 19.043C4.34376 19.5117 4.53907 19.9883 4.92579 20.2656C5.31251 20.543 5.82423 20.5781 6.2461 20.3555L11.2578 17.6797L16.2695 20.3555C16.6914 20.5781 17.2031 20.5469 17.5899 20.2656C17.9766 19.9844 18.1719 19.5117 18.0938 19.043L17.1289 13.3516L21.1992 9.32422C21.5352 8.99219 21.6563 8.49609 21.5078 8.04688C21.3594 7.59766 20.9727 7.26953 20.5039 7.19922L14.8906 6.37109L12.3789 1.20312Z" fill="#0284C7"/>
</g>
<defs>
<clipPath id="clip0_64_7009">
<path d="M0 0.5H22.5V20.5H0V0.5Z" fill="white"/>
</clipPath>
</defs>
</svg>
