<svg width="30" height="24" viewBox="0 0 30 24" fill="none" xmlns="http://www.w3.org/2000/svg">
<path d="M2.25 3C1.00781 3 0 4.00781 0 5.25C0 5.95781 0.332813 6.62344 0.9 7.05L11.1 14.7C11.6344 15.0984 12.3656 15.0984 12.9 14.7L15.5906 12.6844C16.7109 9.88125 19.3266 7.84219 22.4484 7.5375L23.1 7.05C23.6672 6.62344 24 5.95781 24 5.25C24 4.00781 22.9922 3 21.75 3H2.25ZM13.8 15.9C12.7312 16.7016 11.2688 16.7016 10.2 15.9L0 8.25V18C0 19.6547 1.34531 21 3 21H16.8844C15.7078 19.575 15 17.7422 15 15.75C15 15.4875 15.0141 15.2297 15.0375 14.9719L13.8 15.9ZM30 15.75C30 13.9598 29.2888 12.2429 28.023 10.977C26.7571 9.71116 25.0402 9 23.25 9C21.4598 9 19.7429 9.71116 18.477 10.977C17.2112 12.2429 16.5 13.9598 16.5 15.75C16.5 17.5402 17.2112 19.2571 18.477 20.523C19.7429 21.7888 21.4598 22.5 23.25 22.5C25.0402 22.5 26.7571 21.7888 28.023 20.523C29.2888 19.2571 30 17.5402 30 15.75ZM26.4047 13.7203C26.6953 14.0109 26.6953 14.4891 26.4047 14.7797L23.0297 18.1547C22.7391 18.4453 22.2609 18.4453 21.9703 18.1547L20.0953 16.2797C19.8047 15.9891 19.8047 15.5109 20.0953 15.2203C20.3859 14.9297 20.8641 14.9297 21.1547 15.2203L22.5 16.5656L25.3453 13.7203C25.6359 13.4297 26.1141 13.4297 26.4047 13.7203Z" fill="#0284C7"/>
</svg>
