<svg width="13" height="16" viewBox="0 0 13 16" fill="none" xmlns="http://www.w3.org/2000/svg">
<path d="M11.1441 4.70615C11.5348 4.31553 11.5348 3.68115 11.1441 3.29053C10.7535 2.8999 10.1191 2.8999 9.72852 3.29053L6.43789 6.58428L3.14414 3.29365C2.75352 2.90303 2.11914 2.90303 1.72852 3.29365C1.33789 3.68428 1.33789 4.31865 1.72852 4.70928L5.02227 7.9999L1.73164 11.2937C1.34102 11.6843 1.34102 12.3187 1.73164 12.7093C2.12227 13.0999 2.75664 13.0999 3.14727 12.7093L6.43789 9.41553L9.73164 12.7062C10.1223 13.0968 10.7566 13.0968 11.1473 12.7062C11.5379 12.3155 11.5379 11.6812 11.1473 11.2905L7.85352 7.9999L11.1441 4.70615Z" fill="#374151"/>
</svg>
