<svg width="21" height="21" viewBox="0 0 21 21" fill="none" xmlns="http://www.w3.org/2000/svg">
<g clip-path="url(#clip0_64_6847)">
<g clip-path="url(#clip1_64_6847)">
<path d="M18.4441 6.42662C18.4568 6.60428 18.4568 6.78197 18.4568 6.95963C18.4568 12.3784 14.3325 18.6221 6.79441 18.6221C4.47207 18.6221 2.31473 17.9494 0.5 16.782C0.829961 16.82 1.14719 16.8327 1.48984 16.8327C3.40605 16.8327 5.17004 16.1855 6.57867 15.0815C4.77664 15.0434 3.26648 13.8632 2.74617 12.2388C3 12.2769 3.25379 12.3022 3.52031 12.3022C3.88832 12.3022 4.25637 12.2515 4.59898 12.1627C2.72082 11.7819 1.31215 10.1322 1.31215 8.13982V8.08908C1.85781 8.39365 2.49238 8.584 3.16492 8.60935C2.06086 7.8733 1.33754 6.61697 1.33754 5.19564C1.33754 4.43424 1.54055 3.73627 1.8959 3.12713C3.91367 5.61443 6.94668 7.23877 10.3477 7.41646C10.2842 7.11189 10.2461 6.79467 10.2461 6.4774C10.2461 4.2185 12.0736 2.37842 14.3451 2.37842C15.5253 2.37842 16.5913 2.87334 17.34 3.67283C18.2664 3.49518 19.1547 3.15252 19.9416 2.68299C19.637 3.63479 18.9898 4.43428 18.1395 4.94186C18.9644 4.85307 19.7639 4.62459 20.4999 4.30736C19.9416 5.11951 19.2436 5.84283 18.4441 6.42662Z" fill="#9CA3AF"/>
</g>
</g>
<defs>
<clipPath id="clip0_64_6847">
<rect width="20" height="20" fill="white" transform="translate(0.5 0.5)"/>
</clipPath>
<clipPath id="clip1_64_6847">
<path d="M0.5 0.5H20.5V20.5H0.5V0.5Z" fill="white"/>
</clipPath>
</defs>
</svg>
