<svg width="21" height="16" viewBox="0 0 21 16" fill="none" xmlns="http://www.w3.org/2000/svg">
<g clip-path="url(#clip0_64_2263)">
<path d="M7.4375 8C8.49837 8 9.51578 7.57857 10.2659 6.82843C11.0161 6.07828 11.4375 5.06087 11.4375 4C11.4375 2.93913 11.0161 1.92172 10.2659 1.17157C9.51578 0.421427 8.49837 0 7.4375 0C6.37663 0 5.35922 0.421427 4.60907 1.17157C3.85893 1.92172 3.4375 2.93913 3.4375 4C3.4375 5.06087 3.85893 6.07828 4.60907 6.82843C5.35922 7.57857 6.37663 8 7.4375 8ZM6.00938 9.5C2.93125 9.5 0.4375 11.9937 0.4375 15.0719C0.4375 15.5844 0.853125 16 1.36563 16H10.525C10.4281 15.725 10.4094 15.425 10.4812 15.1313L10.95 13.2531C11.0375 12.9 11.2188 12.5813 11.475 12.325L12.7344 11.0656C11.7312 10.0969 10.3688 9.5 8.8625 9.5H6.00938ZM19.6187 7.36562C19.1313 6.87812 18.3406 6.87812 17.85 7.36562L16.9312 8.28438L19.15 10.5031L20.0688 9.58438C20.5562 9.09688 20.5562 8.30625 20.0688 7.81563L19.6187 7.36562ZM12.1844 13.0312C12.0562 13.1594 11.9656 13.3187 11.9219 13.4969L11.4531 15.375C11.4094 15.5469 11.4594 15.725 11.5844 15.85C11.7094 15.975 11.8875 16.025 12.0594 15.9812L13.9375 15.5125C14.1125 15.4688 14.275 15.3781 14.4031 15.25L18.4406 11.2094L16.2219 8.99063L12.1844 13.0312Z" fill="white"/>
</g>
<defs>
<clipPath id="clip0_64_2263">
<path d="M0.4375 0H20.4375V16H0.4375V0Z" fill="white"/>
</clipPath>
</defs>
</svg>
