<svg width="21" height="19" viewBox="0 0 21 19" fill="none" xmlns="http://www.w3.org/2000/svg">
<g clip-path="url(#clip0_64_6526)">
<path d="M10.1251 1.375C7.28447 1.375 5.00986 2.66875 3.354 4.20859C1.70869 5.73438 0.608301 7.5625 0.0879883 8.81758C-0.0280273 9.09531 -0.0280273 9.40469 0.0879883 9.68242C0.608301 10.9375 1.70869 12.7656 3.354 14.2914C5.00986 15.8313 7.28447 17.125 10.1251 17.125C12.9657 17.125 15.2403 15.8313 16.8962 14.2914C18.5415 12.7621 19.6419 10.9375 20.1657 9.68242C20.2817 9.40469 20.2817 9.09531 20.1657 8.81758C19.6419 7.5625 18.5415 5.73438 16.8962 4.20859C15.2403 2.66875 12.9657 1.375 10.1251 1.375ZM5.0626 9.25C5.0626 7.90734 5.59597 6.61967 6.54537 5.67027C7.49477 4.72087 8.78244 4.1875 10.1251 4.1875C11.4678 4.1875 12.7554 4.72087 13.7048 5.67027C14.6542 6.61967 15.1876 7.90734 15.1876 9.25C15.1876 10.5927 14.6542 11.8803 13.7048 12.8297C12.7554 13.7791 11.4678 14.3125 10.1251 14.3125C8.78244 14.3125 7.49477 13.7791 6.54537 12.8297C5.59597 11.8803 5.0626 10.5927 5.0626 9.25ZM10.1251 7C10.1251 8.24102 9.11611 9.25 7.8751 9.25C7.62549 9.25 7.38643 9.20781 7.16143 9.13398C6.96807 9.0707 6.74307 9.19023 6.7501 9.39414C6.76064 9.63672 6.7958 9.8793 6.8626 10.1219C7.34424 11.9219 9.19697 12.9906 10.997 12.509C12.797 12.0273 13.8657 10.1746 13.3841 8.37461C12.9938 6.91563 11.7036 5.93477 10.2692 5.875C10.0653 5.86797 9.9458 6.08945 10.0091 6.28633C10.0829 6.51133 10.1251 6.75039 10.1251 7Z" fill="#0284C7"/>
</g>
<defs>
<clipPath id="clip0_64_6526">
<path d="M0 0.25H20.25V18.25H0V0.25Z" fill="white"/>
</clipPath>
</defs>
</svg>
