<svg width="19" height="20" viewBox="0 0 19 20" fill="none" xmlns="http://www.w3.org/2000/svg">
<g clip-path="url(#clip0_64_4822)">
<path d="M9.46895 3C6.94395 3 4.92207 4.15 3.4502 5.51875C1.9877 6.875 1.00957 8.5 0.54707 9.61562C0.443945 9.8625 0.443945 10.1375 0.54707 10.3844C1.00957 11.5 1.9877 13.125 3.4502 14.4812C4.92207 15.85 6.94395 17 9.46895 17C11.9939 17 14.0158 15.85 15.4877 14.4812C16.9502 13.1219 17.9283 11.5 18.3939 10.3844C18.4971 10.1375 18.4971 9.8625 18.3939 9.61562C17.9283 8.5 16.9502 6.875 15.4877 5.51875C14.0158 4.15 11.9939 3 9.46895 3ZM4.96895 10C4.96895 8.80653 5.44305 7.66193 6.28696 6.81802C7.13088 5.97411 8.27547 5.5 9.46895 5.5C10.6624 5.5 11.807 5.97411 12.6509 6.81802C13.4948 7.66193 13.9689 8.80653 13.9689 10C13.9689 11.1935 13.4948 12.3381 12.6509 13.182C11.807 14.0259 10.6624 14.5 9.46895 14.5C8.27547 14.5 7.13088 14.0259 6.28696 13.182C5.44305 12.3381 4.96895 11.1935 4.96895 10ZM9.46895 8C9.46895 9.10313 8.57207 10 7.46895 10C7.24707 10 7.03457 9.9625 6.83457 9.89687C6.6627 9.84062 6.4627 9.94688 6.46895 10.1281C6.47832 10.3438 6.50957 10.5594 6.56895 10.775C6.99707 12.375 8.64394 13.325 10.2439 12.8969C11.8439 12.4688 12.7939 10.8219 12.3658 9.22188C12.0189 7.925 10.8721 7.05312 9.59707 7C9.41582 6.99375 9.30957 7.19062 9.36582 7.36562C9.43145 7.56562 9.46895 7.77812 9.46895 8Z" fill="#374151"/>
</g>
<defs>
<clipPath id="clip0_64_4822">
<path d="M0.46875 2H18.4688V18H0.46875V2Z" fill="white"/>
</clipPath>
</defs>
</svg>
