<svg width="26" height="21" viewBox="0 0 26 21" fill="none" xmlns="http://www.w3.org/2000/svg">
<g clip-path="url(#clip0_64_5748)">
<path d="M2.01584 0.699194C1.60959 0.378882 1.01975 0.4531 0.699438 0.85935C0.379126 1.2656 0.453345 1.85544 0.859595 2.17576L23.9846 20.3008C24.3908 20.6211 24.9807 20.5469 25.301 20.1406C25.6213 19.7344 25.5471 19.1445 25.1408 18.8242L21.0315 15.6054C22.5783 14.0195 23.6252 12.2422 24.1526 10.9804C24.2815 10.6718 24.2815 10.3281 24.1526 10.0195C23.5705 8.62498 22.3479 6.59373 20.5198 4.89841C18.6838 3.18748 16.1565 1.74998 13.0002 1.74998C10.3362 1.74998 8.11741 2.77732 6.38694 4.12498L2.01584 0.699194ZM9.21506 6.33982C10.2112 5.42966 11.5432 4.87498 13.0002 4.87498C16.1057 4.87498 18.6252 7.39451 18.6252 10.5C18.6252 11.4726 18.3791 12.3867 17.9455 13.1836L16.4377 12.0039C16.7658 11.25 16.8518 10.3867 16.6252 9.53123C16.1916 7.91013 14.758 6.82029 13.1643 6.75388C12.9377 6.74607 12.8049 6.99216 12.8752 7.21091C12.9572 7.46091 13.0041 7.72654 13.0041 8.00388C13.0041 8.40232 12.9104 8.77732 12.7463 9.10935L9.21897 6.34373L9.21506 6.33982ZM15.0705 15.7304C14.4299 15.9844 13.7307 16.125 13.0002 16.125C9.89475 16.125 7.37522 13.6054 7.37522 10.5C7.37522 10.2304 7.39475 9.96873 7.42991 9.71091L3.74631 6.80857C2.85569 7.96873 2.21897 9.12498 1.84788 10.0195C1.71897 10.3281 1.71897 10.6718 1.84788 10.9804C2.42991 12.375 3.65256 14.4062 5.48069 16.1015C7.31663 17.8125 9.84397 19.25 13.0002 19.25C14.8674 19.25 16.5119 18.7461 17.9299 17.9804L15.0705 15.7304Z" fill="#4B5563"/>
</g>
<defs>
<clipPath id="clip0_64_5748">
<path d="M0.5 0.5H25.5V20.5H0.5V0.5Z" fill="white"/>
</clipPath>
</defs>
</svg>
