<svg width="18" height="19" viewBox="0 0 18 19" fill="none" xmlns="http://www.w3.org/2000/svg">
<path d="M18 18.25H0V0.25H18V18.25Z" stroke="#E5E7EB"/>
<path d="M0 3.625C0 2.38398 1.00898 1.375 2.25 1.375H15.75C16.991 1.375 18 2.38398 18 3.625V14.875C18 16.116 16.991 17.125 15.75 17.125H2.25C1.00898 17.125 0 16.116 0 14.875V3.625ZM11.3836 7.36914C11.2254 7.13711 10.9652 7 10.6875 7C10.4098 7 10.1461 7.13711 9.99141 7.36914L6.93281 11.8551L6.00117 10.6914C5.83945 10.491 5.59688 10.375 5.34375 10.375C5.09062 10.375 4.84453 10.491 4.68633 10.6914L2.43633 13.5039C2.23242 13.757 2.19375 14.1051 2.33438 14.3969C2.475 14.6887 2.77031 14.875 3.09375 14.875H6.46875H7.59375H14.9062C15.2191 14.875 15.5074 14.7027 15.6516 14.425C15.7957 14.1473 15.7781 13.8133 15.6023 13.5566L11.3836 7.36914ZM3.9375 7C4.38505 7 4.81428 6.82221 5.13074 6.50574C5.44721 6.18928 5.625 5.76005 5.625 5.3125C5.625 4.86495 5.44721 4.43572 5.13074 4.11926C4.81428 3.80279 4.38505 3.625 3.9375 3.625C3.48995 3.625 3.06072 3.80279 2.74426 4.11926C2.42779 4.43572 2.25 4.86495 2.25 5.3125C2.25 5.76005 2.42779 6.18928 2.74426 6.50574C3.06072 6.82221 3.48995 7 3.9375 7Z" fill="#0284C7"/>
</svg>
