<svg width="21" height="16" viewBox="0 0 21 16" fill="none" xmlns="http://www.w3.org/2000/svg">
<g clip-path="url(#clip0_64_6817)">
<path d="M10.6562 11.7625L10.6594 11.7594L11.4844 12.2L14.1469 13.6219L13.6312 10.5719L13.4812 9.675L14.1281 9.03438L16.3187 6.86875L13.3156 6.425L12.4 6.29063L11.9969 5.45937L10.6594 2.71563L10.6562 2.725V11.7625ZM16.1281 14.8344C16.1906 15.2094 16.0344 15.5906 15.725 15.8125C15.4156 16.0344 15.0062 16.0625 14.6687 15.8844L10.6594 13.7437L6.64999 15.8844C6.31249 16.0625 5.90312 16.0344 5.59374 15.8125C5.28437 15.5906 5.12812 15.2094 5.19062 14.8344L5.96249 10.2812L2.70624 7.05937C2.43749 6.79375 2.34062 6.39687 2.45937 6.0375C2.57812 5.67812 2.88749 5.41563 3.26249 5.35938L7.74999 4.69688L9.76249 0.5625C9.93124 0.21875 10.2781 0 10.6625 0C11.0469 0 11.3937 0.21875 11.5625 0.5625L13.5719 4.69688L18.0594 5.35938C18.4344 5.41563 18.7469 5.67812 18.8625 6.0375C18.9781 6.39687 18.8844 6.79375 18.6156 7.05937L15.3594 10.2812L16.1281 14.8344Z" fill="#FACC15"/>
</g>
<defs>
<clipPath id="clip0_64_6817">
<path d="M0.65625 0H20.6562V16H0.65625V0Z" fill="white"/>
</clipPath>
</defs>
</svg>
