<svg width="28" height="24" viewBox="0 0 28 24" fill="none" xmlns="http://www.w3.org/2000/svg">
<g clip-path="url(#clip0_64_6896)">
<path d="M25.825 4.86563L23.139 0.614063C22.9 0.234375 22.4734 0 22.0187 0H5.29374C4.83905 0 4.41249 0.234375 4.17343 0.614063L1.4828 4.86563C0.0953004 7.05938 1.32343 10.1109 3.91561 10.4625C4.10311 10.4859 4.2953 10.5 4.4828 10.5C5.70624 10.5 6.79374 9.96562 7.53905 9.14062C8.28436 9.96562 9.37186 10.5 10.5953 10.5C11.8187 10.5 12.9062 9.96562 13.6516 9.14062C14.3969 9.96562 15.4844 10.5 16.7078 10.5C17.9359 10.5 19.0187 9.96562 19.764 9.14062C20.514 9.96562 21.5969 10.5 22.8203 10.5C23.0125 10.5 23.2 10.4859 23.3875 10.4625C25.9891 10.1156 27.2219 7.06406 25.8297 4.86563H25.825ZM23.5797 11.9484H23.575C23.3266 11.9812 23.0734 12 22.8156 12C22.2344 12 21.6766 11.9109 21.1562 11.7516V18H6.15624V11.7469C5.63124 11.9109 5.06874 12 4.48749 12C4.22968 12 3.97186 11.9812 3.72343 11.9484H3.71874C3.52655 11.9203 3.33905 11.8875 3.15624 11.8406V18V21C3.15624 22.6547 4.50155 24 6.15624 24H21.1562C22.8109 24 24.1562 22.6547 24.1562 21V18V11.8406C23.9687 11.8875 23.7812 11.925 23.5797 11.9484Z" fill="#0284C7"/>
</g>
<defs>
<clipPath id="clip0_64_6896">
<path d="M0.15625 0H27.1562V24H0.15625V0Z" fill="white"/>
</clipPath>
</defs>
</svg>
