<svg width="17" height="16" viewBox="0 0 17 16" fill="none" xmlns="http://www.w3.org/2000/svg">
<g clip-path="url(#clip0_64_1997)">
<path d="M8.21875 16C10.3405 16 12.3753 15.1571 13.8756 13.6569C15.3759 12.1566 16.2188 10.1217 16.2188 8C16.2188 5.87827 15.3759 3.84344 13.8756 2.34315C12.3753 0.842855 10.3405 0 8.21875 0C6.09702 0 4.06219 0.842855 2.5619 2.34315C1.0616 3.84344 0.21875 5.87827 0.21875 8C0.21875 10.1217 1.0616 12.1566 2.5619 13.6569C4.06219 15.1571 6.09702 16 8.21875 16ZM6.96875 10.5H7.71875V8.5H6.96875C6.55312 8.5 6.21875 8.16562 6.21875 7.75C6.21875 7.33437 6.55312 7 6.96875 7H8.46875C8.88437 7 9.21875 7.33437 9.21875 7.75V10.5H9.46875C9.88437 10.5 10.2188 10.8344 10.2188 11.25C10.2188 11.6656 9.88437 12 9.46875 12H6.96875C6.55312 12 6.21875 11.6656 6.21875 11.25C6.21875 10.8344 6.55312 10.5 6.96875 10.5ZM8.21875 4C8.48397 4 8.73832 4.10536 8.92586 4.29289C9.11339 4.48043 9.21875 4.73478 9.21875 5C9.21875 5.26522 9.11339 5.51957 8.92586 5.70711C8.73832 5.89464 8.48397 6 8.21875 6C7.95353 6 7.69918 5.89464 7.51164 5.70711C7.32411 5.51957 7.21875 5.26522 7.21875 5C7.21875 4.73478 7.32411 4.48043 7.51164 4.29289C7.69918 4.10536 7.95353 4 8.21875 4Z" fill="black"/>
</g>
<defs>
<clipPath id="clip0_64_1997">
<path d="M0.21875 0H16.2188V16H0.21875V0Z" fill="white"/>
</clipPath>
</defs>
</svg>
