<svg width="23" height="21" viewBox="0 0 23 21" fill="none" xmlns="http://www.w3.org/2000/svg">
<g clip-path="url(#clip0_64_5742)">
<path d="M9.76562 0.5H8.20312C7.16797 0.5 6.32812 1.33984 6.32812 2.375V6.75C6.32812 8.12891 7.44922 9.25 8.82812 9.25H13.8281C15.207 9.25 16.3281 8.12891 16.3281 6.75V2.375C16.3281 1.33984 15.4883 0.5 14.4531 0.5H12.8906V3.625C12.8906 3.96875 12.6094 4.25 12.2656 4.25H10.3906C10.0469 4.25 9.76562 3.96875 9.76562 3.625V0.5ZM2.57812 10.5C1.19922 10.5 0.078125 11.6211 0.078125 13V18C0.078125 19.3789 1.19922 20.5 2.57812 20.5H8.82812C10.207 20.5 11.3281 19.3789 11.3281 18V13C11.3281 11.6211 10.207 10.5 8.82812 10.5H7.26562V13.625C7.26562 13.9688 6.98438 14.25 6.64062 14.25H4.76562C4.42188 14.25 4.14062 13.9688 4.14062 13.625V10.5H2.57812ZM13.8281 20.5H20.0781C21.457 20.5 22.5781 19.3789 22.5781 18V13C22.5781 11.6211 21.457 10.5 20.0781 10.5H18.5156V13.625C18.5156 13.9688 18.2344 14.25 17.8906 14.25H16.0156C15.6719 14.25 15.3906 13.9688 15.3906 13.625V10.5H13.8281C13.2422 10.5 12.7031 10.6992 12.2773 11.0391C12.4688 11.4453 12.5781 11.8984 12.5781 12.375V18.625C12.5781 19.1016 12.4688 19.5547 12.2773 19.9609C12.7031 20.3008 13.2422 20.5 13.8281 20.5Z" fill="#2563EB"/>
</g>
<defs>
<clipPath id="clip0_64_5742">
<path d="M0.078125 0.5H22.5781V20.5H0.078125V0.5Z" fill="white"/>
</clipPath>
</defs>
</svg>
