<svg width="25" height="21" viewBox="0 0 25 21" fill="none" xmlns="http://www.w3.org/2000/svg">
<g clip-path="url(#clip0_64_7020)">
<path d="M10 3H15V5.5H10V3ZM9.375 0.5C8.33984 0.5 7.5 1.33984 7.5 2.375V6.125C7.5 7.16016 8.33984 8 9.375 8H11.25V9.25H1.25C0.558594 9.25 0 9.80859 0 10.5C0 11.1914 0.558594 11.75 1.25 11.75H5V13H3.125C2.08984 13 1.25 13.8398 1.25 14.875V18.625C1.25 19.6602 2.08984 20.5 3.125 20.5H9.375C10.4102 20.5 11.25 19.6602 11.25 18.625V14.875C11.25 13.8398 10.4102 13 9.375 13H7.5V11.75H17.5V13H15.625C14.5898 13 13.75 13.8398 13.75 14.875V18.625C13.75 19.6602 14.5898 20.5 15.625 20.5H21.875C22.9102 20.5 23.75 19.6602 23.75 18.625V14.875C23.75 13.8398 22.9102 13 21.875 13H20V11.75H23.75C24.4414 11.75 25 11.1914 25 10.5C25 9.80859 24.4414 9.25 23.75 9.25H13.75V8H15.625C16.6602 8 17.5 7.16016 17.5 6.125V2.375C17.5 1.33984 16.6602 0.5 15.625 0.5H9.375ZM3.75 18V15.5H8.75V18H3.75ZM16.25 15.5H21.25V18H16.25V15.5Z" fill="#0284C7"/>
</g>
<defs>
<clipPath id="clip0_64_7020">
<path d="M0 0.5H25V20.5H0V0.5Z" fill="white"/>
</clipPath>
</defs>
</svg>
