<svg width="16" height="19" viewBox="0 0 16 19" fill="none" xmlns="http://www.w3.org/2000/svg">
<g clip-path="url(#clip0_64_4049)">
<path d="M8.1253 0.25C7.50304 0.25 7.0003 0.752734 7.0003 1.375V2.05C4.4339 2.57031 2.5003 4.84141 2.5003 7.5625V8.22344C2.5003 9.87578 1.8921 11.4719 0.795226 12.7094L0.535069 13.0012C0.239757 13.3316 0.169444 13.8063 0.348741 14.2105C0.528038 14.6148 0.932335 14.875 1.3753 14.875H14.8753C15.3183 14.875 15.7191 14.6148 15.9019 14.2105C16.0847 13.8063 16.0109 13.3316 15.7155 13.0012L15.4554 12.7094C14.3585 11.4719 13.7503 9.8793 13.7503 8.22344V7.5625C13.7503 4.84141 11.8167 2.57031 9.2503 2.05V1.375C9.2503 0.752734 8.74757 0.25 8.1253 0.25ZM9.71788 17.5926C10.1398 17.1707 10.3753 16.5977 10.3753 16H8.1253H5.8753C5.8753 16.5977 6.11085 17.1707 6.53273 17.5926C6.9546 18.0145 7.52765 18.25 8.1253 18.25C8.72296 18.25 9.29601 18.0145 9.71788 17.5926Z" fill="#4B5563"/>
</g>
<defs>
<clipPath id="clip0_64_4049">
<path d="M0.25 0.25H16V18.25H0.25V0.25Z" fill="white"/>
</clipPath>
</defs>
</svg>
