<svg width="14" height="14" viewBox="0 0 14 14" fill="none" xmlns="http://www.w3.org/2000/svg">
<g clip-path="url(#clip0_64_7690)">
<path d="M9.625 0C9.27227 0 8.95234 0.213281 8.81563 0.541406C8.67891 0.869531 8.75547 1.24414 9.0043 1.4957L10.1363 2.625L5.50703 7.25703C5.16523 7.59883 5.16523 8.15391 5.50703 8.4957C5.84883 8.8375 6.40391 8.8375 6.7457 8.4957L11.375 3.86367L12.507 4.9957C12.7586 5.24727 13.1332 5.32109 13.4613 5.18438C13.7895 5.04766 14.0027 4.73047 14.0027 4.375V0.875C14.0027 0.391016 13.6117 0 13.1277 0H9.625ZM2.1875 0.875C0.978906 0.875 0 1.85391 0 3.0625V11.8125C0 13.0211 0.978906 14 2.1875 14H10.9375C12.1461 14 13.125 13.0211 13.125 11.8125V8.75C13.125 8.26602 12.734 7.875 12.25 7.875C11.766 7.875 11.375 8.26602 11.375 8.75V11.8125C11.375 12.0531 11.1781 12.25 10.9375 12.25H2.1875C1.94687 12.25 1.75 12.0531 1.75 11.8125V3.0625C1.75 2.82188 1.94687 2.625 2.1875 2.625H5.25C5.73398 2.625 6.125 2.23398 6.125 1.75C6.125 1.26602 5.73398 0.875 5.25 0.875H2.1875Z" fill="#0284C7"/>
</g>
<defs>
<clipPath id="clip0_64_7690">
<path d="M0 0H14V14H0V0Z" fill="white"/>
</clipPath>
</defs>
</svg>
