<svg width="20" height="21" viewBox="0 0 20 21" fill="none" xmlns="http://www.w3.org/2000/svg">
<g clip-path="url(#clip0_64_7028)">
<path d="M18.75 1.74998C18.75 1.24607 18.4453 0.78904 17.9766 0.593727C17.5078 0.398415 16.9727 0.50779 16.6133 0.863259L14.9102 2.57029C13.0352 4.44529 10.4922 5.49998 7.83984 5.49998H7.5H6.25H2.5C1.12109 5.49998 0 6.62107 0 7.99998V11.75C0 13.1289 1.12109 14.25 2.5 14.25V19.25C2.5 19.9414 3.05859 20.5 3.75 20.5H6.25C6.94141 20.5 7.5 19.9414 7.5 19.25V14.25H7.83984C10.4922 14.25 13.0352 15.3047 14.9102 17.1797L16.6133 18.8828C16.9727 19.2422 17.5078 19.3476 17.9766 19.1523C18.4453 18.957 18.75 18.5039 18.75 17.9961V12.2344C19.4766 11.8906 20 10.9648 20 9.87498C20 8.78513 19.4766 7.85935 18.75 7.5156V1.74998ZM16.25 4.74607V9.87498V15.0039C13.9531 12.914 10.957 11.75 7.83984 11.75H7.5V7.99998H7.83984C10.957 7.99998 13.9531 6.83591 16.25 4.74607Z" fill="#0284C7"/>
</g>
<defs>
<clipPath id="clip0_64_7028">
<path d="M0 0.5H20V20.5H0V0.5Z" fill="white"/>
</clipPath>
</defs>
</svg>
