<svg width="16" height="20" viewBox="0 0 16 20" fill="none" xmlns="http://www.w3.org/2000/svg">
<path d="M16 20H0V0H16V20Z" stroke="#E5E7EB"/>
<g clip-path="url(#clip0_64_4878)">
<path d="M9 5.41558V13C9 13.5531 8.55313 14 8 14C7.44688 14 7 13.5531 7 13V5.41558L4.70625 7.70933C4.31563 8.09995 3.68125 8.09995 3.29063 7.70933C2.9 7.3187 2.9 6.68433 3.29063 6.2937L7.29063 2.2937C7.68125 1.90308 8.31563 1.90308 8.70625 2.2937L12.7063 6.2937C13.0969 6.68433 13.0969 7.3187 12.7063 7.70933C12.3156 8.09995 11.6812 8.09995 11.2906 7.70933L9 5.41558ZM2 13H6C6 14.1031 6.89687 15 8 15C9.10312 15 10 14.1031 10 13H14C15.1031 13 16 13.8968 16 15V16C16 17.1031 15.1031 18 14 18H2C0.896875 18 0 17.1031 0 16V15C0 13.8968 0.896875 13 2 13ZM13.5 16.25C13.6989 16.25 13.8897 16.1709 14.0303 16.0303C14.171 15.8896 14.25 15.6989 14.25 15.5C14.25 15.301 14.171 15.1103 14.0303 14.9696C13.8897 14.829 13.6989 14.75 13.5 14.75C13.3011 14.75 13.1103 14.829 12.9697 14.9696C12.829 15.1103 12.75 15.301 12.75 15.5C12.75 15.6989 12.829 15.8896 12.9697 16.0303C13.1103 16.1709 13.3011 16.25 13.5 16.25Z" fill="#0369A1"/>
</g>
<defs>
<clipPath id="clip0_64_4878">
<path d="M0 2H16V18H0V2Z" fill="white"/>
</clipPath>
</defs>
</svg>
