<svg width="30" height="31" viewBox="0 0 30 31" fill="none" xmlns="http://www.w3.org/2000/svg">
<g clip-path="url(#clip0_64_2250)">
<path d="M15 0.75C15.2696 0.75 15.5391 0.808594 15.7852 0.919922L26.8184 5.60156C28.1074 6.14648 29.0684 7.41797 29.0625 8.95312C29.0332 14.7656 26.6426 25.4004 16.5469 30.2344C15.5684 30.7031 14.4317 30.7031 13.4532 30.2344C3.35745 25.4004 0.966824 14.7656 0.937527 8.95312C0.931667 7.41797 1.8926 6.14648 3.18167 5.60156L14.2207 0.919922C14.461 0.808594 14.7305 0.75 15 0.75ZM15 4.66406V26.8125C23.086 22.8984 25.2598 14.2324 25.3125 9.03516L15 4.66406Z" fill="#CA8A04"/>
</g>
<defs>
<clipPath id="clip0_64_2250">
<path d="M0 0.75H30V30.75H0V0.75Z" fill="white"/>
</clipPath>
</defs>
</svg>
