<?xml version="1.0" encoding="UTF-8"?>
<svg id="Layer_1" data-name="Layer 1" xmlns="http://www.w3.org/2000/svg" viewBox="0 0 150 64">
  <defs>
    <style>
      .cls-1 {
        fill: #dd2f3c;
      }

      .cls-2 {
        fill: #1f2937;
      }

      .cls-3 {
        fill: #0284c7;
      }
    </style>
  </defs>
  <path class="cls-2" d="M43.87,39.27c-2.35,3.19-6.14,5.1-10.14,5.1-6.91,0-12.53-5.55-12.53-12.37s5.62-12.37,12.53-12.37c4,0,7.79,1.91,10.14,5.1l.22.3,3.19-2.29-.22-.3c-3.09-4.2-8.08-6.7-13.33-6.7-9.09,0-16.48,7.3-16.48,16.27s7.39,16.27,16.48,16.27c5.26,0,10.24-2.51,13.33-6.7l.22-.3-3.19-2.29-.22.31h0Z"/>
  <path class="cls-2" d="M48.21,30.01h-15.07v3.99h15.07v-3.99Z"/>
  <path class="cls-2" d="M55.5,44.69c-3.16,0-5.14-1.85-5.14-5.35v-8.79c0-3.36,2.06-5.17,5.22-5.17,3.33,0,5.35,1.66,5.35,5.28v5.25h-6.7v3.65c0,1.56.51,2.32,1.47,2.32,1.05,0,1.56-.8,1.52-3.55h3.71c.08,4.23-1.73,6.37-5.43,6.37h0ZM54.24,30.25v3.11h2.99v-3.11c0-1.45-.51-2.17-1.52-2.17s-1.47.72-1.47,2.17h0Z"/>
  <path class="cls-2" d="M74.04,30.47v13.78h-2.7l-.55-1.16c-.93,1.05-2.11,1.56-3.5,1.56-2.4,0-4.04-1.99-4.04-4.85v-1.99c0-3.08,1.64-5.06,4.55-5.06.84,0,1.6.18,2.32.51v-2.86c0-1.74-.38-2.32-1.35-2.32-1.09,0-1.64.94-1.64,2.86h-3.66c-.04-3.87,2.19-5.57,5.43-5.57s5.14,1.74,5.14,5.1h0ZM70.12,40.89v-4.96c-.38-.4-.84-.61-1.39-.61-1.05,0-1.6.94-1.6,2.79v1.56c0,1.27.67,2.1,1.56,2.1.59,0,1.05-.29,1.43-.87h0Z"/>
  <path class="cls-2" d="M84.78,25.58v3.69c-2.06-.15-3.37.62-3.92,2.32v12.66h-3.92v-18.45h3.5l.29,1.77c.88-1.34,2.23-1.99,4.04-1.99h0Z"/>
  <path class="cls-2" d="M112.28,19.12v25.33h-4v-10.96h-3.62v10.96h-4v-25.33h4v11.07h3.62v-11.07h4Z"/>
  <path class="cls-1" d="M119.44,19.3h-3.92v3.73h3.92v-3.73Z"/>
  <path class="cls-2" d="M119.44,25.99h-3.92v18.45h3.92v-18.45Z"/>
  <path class="cls-2" d="M130.31,25.78v3.69c-2.06-.14-3.37.62-3.92,2.32v12.66h-3.92v-18.45h3.5l.29,1.77c.88-1.34,2.23-1.99,4.04-1.99h0Z"/>
  <path class="cls-2" d="M137.3,44.88c-3.16,0-5.14-1.85-5.14-5.35v-8.79c0-3.36,2.06-5.17,5.22-5.17,3.33,0,5.35,1.66,5.35,5.28v5.25h-6.7v3.65c0,1.56.51,2.32,1.48,2.32,1.05,0,1.56-.8,1.52-3.55h3.71c.08,4.23-1.73,6.37-5.43,6.37h0ZM136.04,30.44v3.11h2.99v-3.11c0-1.45-.5-2.17-1.52-2.17s-1.48.72-1.48,2.17h0Z"/>
  <path class="cls-3" d="M15.35,56.85c-4.46,0-8.09-3.58-8.09-7.98V15.14c0-4.4,3.63-7.98,8.09-7.98h13.61v3.98h-13.61c-2.24,0-4.05,1.79-4.05,4v33.73c0,2.21,1.82,4,4.05,4h13.61v3.98h-13.61Z"/>
  <path class="cls-3" d="M73.06,56.85v-3.98h13.61c2.24,0,4.05-1.79,4.05-4V15.14c0-2.21-1.82-4-4.05-4h-13.61v-3.98h13.61c4.46,0,8.09,3.58,8.09,7.98v33.73c0,4.4-3.63,7.98-8.09,7.98h-13.61Z"/>
</svg>